<svg xmlns="http://www.w3.org/2000/svg" viewBox="0 0 640 640"><!--! United States and Territories Icons 1.0.0 by Tabbatha Crouch - https://github.com/tabbathacrouch/united-states-and-territories-icons-fa License - MIT Copyright 2026 Tabbatha Crouch --><path fill="currentColor" d="m515.2 445.2 5.3-10.4 21.6 18.7 3.7 10-10.1 2.4-12.2-8.1-2.2-12.7Zm-12.8-17.1 4.8-7.6 11.5.4 5 9-15.4 5.4Zm-15.7-32 3.9 2.4 6.8 1.5-.6 3.3 8.9 11.3-7.3 1.4-5.2-6.7Zm-2.6 24.5 10.7-2.3 8.5 23.8-12.7-10.3Zm-14-12.2 7.3-7.7 11.5 2.7 4.5 11.4-9.5-1.4-7.4 3.7ZM270 430l13-13 3 11-9.7 4.2Zm-17.1 15.7 16.6-13.6 11.3 1.5 2 11-7.3 3.6-13 11.5-6.6-5.9Zm-135.4 47 6.2-5.1 13.9-1.3 1.9 7.6ZM115 361l14.7-.9 5 3.4-.6 8.8-6.6.6-9.8-6ZM73.3 512l10-1.2 6.2-10.7 6.7 4.2L90 512Zm64.6-273 26.1-11 11.7-2.5 5.7 2.6-2.2 9.7 18.3 3.6 3.4-11-6.3-11-10.3-4.3-2.3-12.7-16.8-19.8 5.6-11.3 16.4 2 9.4-7.2 3.4-10.4 10.7-10.4 6.3.9 11.9-9.1 12.2.4L253 128l13.9 11.2 10-1.7 6.3 7.9 9.7 4.3 12.7-3.5 18 7.1 10.2-1 7.9 3.6 12-5.8 19.4 8.6 12 70 6 34.4 7.4 42.5 10.8 62.6 11.8.8 2.5-4 28.3 19.4 3.5 7 8.5-8 1.7-11.6 7-5.5 8.8 9.9 23.1 13.5 25 29.4 15.5 6 13.8 2.1 8 17.4-1.9 9.4-6.4 5-4.8-7.7-16.2-4.2-10.3-10 1.2-11-9.7-7.7-7.6-.8-2.5-8-10.7-12.2-6 .7-6.4-7.4.7 7.2-7.3-1-10 7.5-14.6-6-4.4-5-30.5-12.8-26.3-4.6-14.9 4.3-15.6-5.4-5.8-7-12.3-5.6-9.8-.1-4.9 5.5.3 16.2-13.7 1.4-19.8 18.7-6.8 1-1.4-14 5.3-10.9-1.3-17.3-8.5 10.8-9 18.9-8.3 4-5.5 8 10.4 6.7-3.3 5.6-16.1 13.4-18.2 18-10.6 8.3-10 2.6-7.5 13.8-15.8 3-12.5 5.8-12.7 1-8 5.4-11.2 1.4-1.7-4.3 12.3-11.3 13.5-4.8 9.5 4 3-9.2 22.2-12.4 13.5-13 6.7-28.5-9.1 4-7.2-6.3-13.8.7-4.5-7.4-11.6 5.4-7.2-12.5 4.8-4.6-7.8-12.4-16.5 1.2-11.4-20 6-5-8.7-13.1v-11.4L150 316l9.1-13.4 6-2 9.3 6.3 8-7.5 12.6.5 4.7-7-1-24.5-14 6.2-17.6-3.5-6.4 1.4-10.8-5.7-2.5-11.6Z"/></svg>